<?xml version="1.0" encoding="UTF-8"?>
<!DOCTYPE svg PUBLIC "-//W3C//DTD SVG 1.1//EN" "http://www.w3.org/Graphics/SVG/1.1/DTD/svg11.dtd">
<!-- Creator: CorelDRAW 2019 (64 Bit) -->
<svg xmlns="http://www.w3.org/2000/svg" xml:space="preserve" width="250" height="250" version="1.1" style="shape-rendering:geometricPrecision; text-rendering:geometricPrecision; image-rendering:optimizeQuality; fill-rule:evenodd; clip-rule:evenodd"
viewBox="0 0 20000 20000"
 xmlns:xlink="http://www.w3.org/1999/xlink"
 xmlns:xodm="http://www.corel.com/coreldraw/odm/2003">
 <defs>
  <style type="text/css">
   <![CDATA[
    .fil3 {fill:none}
    .fil2 {fill:#8A73B4}
    .fil0 {fill:white}
    .fil1 {fill:#8A73B4;fill-rule:nonzero}
   ]]>
  </style>
   <clipPath id="id0">
    <path d="M-7.6 7.6l20000 0 0 20000 -20000 0 0 -20000z"/>
   </clipPath>
    <clipPath id="id1">
    </clipPath>
    <clipPath id="id2">
     <path d="M-7.6 7.6l20000 0 0 20000 -20000 0 0 -20000z"/>
    </clipPath>
 </defs>
 <g id="Camada_x0020_1">
  <metadata id="CorelCorpID_0Corel-Layer"/>
  <polygon class="fil0" points="-7.6,7.6 19992.4,7.6 19992.4,20007.6 -7.6,20007.6 "/>
  <g style="clip-path:url(#id0)">
   <g id="_2135683238304">
    <g>
     <polygon id="1" class="fil1" points="23250.95,5994.66 23250.95,6167.44 24608.69,6167.44 24608.69,7838.13 24781.51,7838.13 24781.51,5994.66 "/>
     <path class="fil1" d="M25193.25 6910.2c0,25.77 20.86,46.67 46.67,46.67 25.77,0 46.68,-20.9 46.68,-46.67 0,-25.77 -20.91,-46.67 -46.68,-46.67 -25.81,0 -46.67,20.9 -46.67,46.67z"/>
     <path class="fil1" d="M25192.33 8007.88c0,25.76 20.9,46.66 46.67,46.66 25.8,0 46.71,-20.9 46.71,-46.66 0,-25.81 -20.91,-46.69 -46.71,-46.69 -25.77,0 -46.67,20.88 -46.67,46.69z"/>
     <path class="fil1" d="M25190.54 7457.63c0,25.78 20.91,46.65 46.67,46.65 25.78,0 46.69,-20.87 46.69,-46.65 0,-25.79 -20.91,-46.7 -46.69,-46.7 -25.76,0 -46.67,20.91 -46.67,46.7z"/>
     <path class="fil1" d="M25278.71 6912.94c0,25.76 20.91,46.67 46.68,46.67 25.77,0 46.73,-20.91 46.73,-46.67 0,-25.81 -20.96,-46.68 -46.73,-46.68 -25.77,0 -46.68,20.87 -46.68,46.68z"/>
     <path class="fil1" d="M25277.82 8010.57c0,25.8 20.91,46.71 46.68,46.71 25.76,0 46.64,-20.91 46.64,-46.71 0,-25.77 -20.88,-46.67 -46.64,-46.67 -25.77,0 -46.68,20.9 -46.68,46.67z"/>
     <path class="fil1" d="M25276.02 7460.34c0,25.8 20.9,46.68 46.7,46.68 25.77,0 46.69,-20.88 46.69,-46.68 0,-25.77 -20.92,-46.67 -46.69,-46.67 -25.8,0 -46.7,20.9 -46.7,46.67z"/>
     <path class="fil1" d="M25366.27 6905.53c0,26.22 21.23,47.44 47.43,47.44 26.21,0 47.55,-21.22 47.55,-47.44 0,-26.21 -21.34,-47.47 -47.55,-47.47 -26.2,0 -47.43,21.26 -47.43,47.47z"/>
     <path class="fil1" d="M25365.4 8013.24c0,26.22 21.23,47.46 47.44,47.46 26.21,0 47.43,-21.24 47.43,-47.46 0,-26.21 -21.22,-47.47 -47.43,-47.47 -26.21,0 -47.44,21.26 -47.44,47.47z"/>
     <path class="fil1" d="M25363.56 7462.12c0,26.22 21.23,47.43 47.44,47.43 26.21,0 47.43,-21.21 47.43,-47.43 0,-26.22 -21.22,-47.48 -47.43,-47.48 -26.21,0 -47.44,21.26 -47.44,47.48z"/>
     <path class="fil1" d="M25235.98 6694.77c0,68.86 55.79,124.68 124.66,124.68 68.88,0 124.76,-55.82 124.76,-124.68 0,-68.85 -55.88,-124.68 -124.76,-124.68 -68.87,0 -124.66,55.83 -124.66,124.68z"/>
     <path class="fil1" d="M25248.69 7793.4c0,68.85 55.82,124.68 124.73,124.68 68.88,0 124.65,-55.83 124.65,-124.68 0,-68.86 -55.77,-124.68 -124.65,-124.68 -68.91,0 -124.73,55.82 -124.73,124.68z"/>
     <path class="fil1" d="M25242.34 7241.34c0,68.87 55.82,124.7 124.69,124.7 68.88,0 124.65,-55.83 124.65,-124.7 0,-68.84 -55.77,-124.67 -124.65,-124.67 -68.87,0 -124.69,55.83 -124.69,124.67z"/>
     <path class="fil1" d="M25218.32 6906.38c0,-13.95 11.3,-25.28 25.32,-25.28 13.94,0 25.26,11.33 25.26,25.28 0,13.98 -11.32,25.33 -25.26,25.33 -14.02,0 -25.32,-11.35 -25.32,-25.33zm71.68 -221.87c0,-42.97 34.82,-77.78 77.79,-77.78 42.88,0 77.75,34.81 77.75,77.78 0,42.96 -34.87,77.75 -77.75,77.75 -42.97,0 -77.79,-34.79 -77.79,-77.75zm12.64 221.87c0,-13.95 11.31,-25.28 25.29,-25.28 13.98,0 25.32,11.33 25.32,25.28 0,13.98 -11.34,25.33 -25.32,25.33 -13.98,0 -25.29,-11.35 -25.29,-25.33zm82.04 0c0,-13.95 11.37,-25.28 25.34,-25.28 13.97,0 25.24,11.33 25.24,25.28 0,13.98 -11.27,25.33 -25.24,25.33 -13.97,0 -25.34,-11.35 -25.34,-25.33zm-666.27 -415.31l0 514.77 719.44 0c61.41,0 110.9,-49.91 110.9,-111.4l0 -292.26c0,-61.51 -49.49,-111.11 -110.9,-111.11l-719.44 0z"/>
     <path class="fil1" d="M23888.09 6894.44l0 -292.26c0,-61.51 50.04,-111.11 111.55,-111.11l718.77 0 0 514.77 -718.77 0c-61.51,0 -111.55,-49.91 -111.55,-111.4z"/>
     <path class="fil1" d="M25445.54 7237.45c0,42.95 -34.87,77.77 -77.75,77.77 -42.97,0 -77.79,-34.82 -77.79,-77.77 0,-42.93 34.82,-77.76 77.79,-77.76 42.88,0 77.75,34.83 77.75,77.76zm-176.64 221.91c0,13.94 -11.32,25.28 -25.26,25.28 -14.02,0 -25.32,-11.34 -25.32,-25.28 0,-13.98 11.3,-25.3 25.32,-25.3 13.94,0 25.26,11.32 25.26,25.3zm33.74 0c0,-13.98 11.31,-25.3 25.29,-25.3 13.98,0 25.32,11.32 25.32,25.3 0,13.94 -11.34,25.28 -25.32,25.28 -13.98,0 -25.29,-11.34 -25.29,-25.28zm82.04 0c0,-13.98 11.37,-25.3 25.34,-25.3 13.97,0 25.24,11.32 25.24,25.3 0,13.94 -11.27,25.28 -25.24,25.28 -13.97,0 -25.34,-11.34 -25.34,-25.28zm53.17 -415.32l-719.44 0 0 514.73 719.44 0c61.41,0 110.9,-49.88 110.9,-111.39l0 -292.26c0,-61.49 -49.49,-111.08 -110.9,-111.08z"/>
     <path class="fil1" d="M23999.64 7558.77c-61.51,0 -111.55,-49.88 -111.55,-111.39l0 -292.26c0,-61.49 50.04,-111.08 111.55,-111.08l718.77 0 0 514.73 -718.77 0z"/>
     <path class="fil1" d="M23999.64 8111.74c-61.51,0 -111.55,-49.92 -111.55,-111.43l0 -292.23c0,-61.51 50.04,-111.08 111.55,-111.08l718.77 0 0 514.74 -718.77 0z"/>
     <path class="fil1" d="M25445.54 7790.41c0,42.96 -34.87,77.74 -77.75,77.74 -42.97,0 -77.79,-34.78 -77.79,-77.74 0,-42.96 34.82,-77.78 77.79,-77.78 42.88,0 77.75,34.82 77.75,77.78zm-176.64 221.88c0,13.98 -11.32,25.33 -25.26,25.33 -14.02,0 -25.32,-11.35 -25.32,-25.33 0,-13.95 11.3,-25.29 25.32,-25.29 13.94,0 25.26,11.34 25.26,25.29zm33.74 0c0,-13.95 11.31,-25.29 25.29,-25.29 13.98,0 25.32,11.34 25.32,25.29 0,13.98 -11.34,25.33 -25.32,25.33 -13.98,0 -25.29,-11.35 -25.29,-25.33zm82.04 0c0,-13.95 11.37,-25.29 25.34,-25.29 13.97,0 25.24,11.34 25.24,25.29 0,13.98 -11.27,25.33 -25.24,25.33 -13.97,0 -25.34,-11.35 -25.34,-25.33zm53.17 -415.29l-719.44 0 0 514.74 719.44 0c61.41,0 110.9,-49.92 110.9,-111.43l0 -292.23c0,-61.51 -49.49,-111.08 -110.9,-111.08z"/>
     <polygon class="fil1" points="23711.64,6962.06 23711.64,6962.06 23711.64,6962.06 "/>
     <polygon class="fil1" points="20283.33,6962.06 20283.33,6962.06 20283.33,6962.06 "/>
     <polygon class="fil1" points="23159.09,6285.96 20790.26,6285.96 20237.61,6962.06 23665.95,6962.06 23665.95,6962.06 "/>
     <polygon class="fil1" points="20789.85,6263.91 23159.44,6263.91 23159.44,4850.57 20789.85,4850.57 "/>
     <polygon class="fil1" points="20237.61,7085.12 23665.95,7085.12 23665.95,6961.77 20237.61,6961.77 "/>
     <polygon class="fil1" points="23082.35,6333.4 20880.4,6333.4 20496.96,6874.64 23452.3,6874.64 23452.3,6874.64 "/>
     <polygon class="fil1" points="20707.96,6760.77 20937.18,6424.53 21123.23,6424.53 20937.18,6760.61 "/>
     <polygon class="fil1" points="21037.6,6765.09 21210.57,6428.85 21389.66,6428.85 21255.88,6764.93 "/>
     <polygon class="fil1" points="23202.17,6765.09 22972.96,6428.85 22786.92,6428.85 22972.96,6764.93 "/>
     <polygon class="fil1" points="22872.55,6765.09 22699.6,6428.85 22520.52,6428.85 22654.27,6764.93 "/>
     <polygon class="fil1" points="22567.42,6765.09 22428.66,6428.85 22249.58,6428.85 22349.16,6764.93 "/>
     <polygon class="fil1" points="21334.43,6765.09 21473.19,6428.85 21652.26,6428.85 21552.69,6764.93 "/>
     <polygon class="fil1" points="21721.53,6508 21905.06,6508 21905.06,6428.85 21721.53,6428.85 "/>
     <polygon class="fil1" points="22184.86,6508 22001.34,6508 22001.34,6428.85 22166.21,6428.85 "/>
     <polygon class="fil1" points="21726.05,6632.08 21909.58,6632.08 21909.58,6552.96 21726.05,6552.96 "/>
     <polygon class="fil1" points="22184.86,6637.13 22001.34,6637.13 22001.34,6558.02 22166.21,6558.02 "/>
     <polygon class="fil1" points="22229.85,6682.63 21647.75,6682.63 21629.1,6761.79 22248.48,6761.79 "/>
     <polygon class="fil1" points="23155.82,6554.65 20817.68,6554.65 20817.68,6507.63 23087.41,6507.63 "/>
     <polygon class="fil1" points="23241.29,6686.86 20731.8,6686.86 20731.8,6639.83 23172.91,6639.83 "/>
     <polygon class="fil1" points="21758.2,7040.28 22191.09,7040.28 22191.09,6987.79 21758.2,6987.79 "/>
     <polygon class="fil1" points="23035.74,4946.93 20913.51,4946.93 20913.51,6149.98 23035.74,4970.95 "/>
     <polygon class="fil1" points="20913.51,6149.98 20913.51,6156.86 23035.74,6156.86 23035.74,4970.95 "/>
    </g>
    <path class="fil1" d="M9637.62 10853.55c0,71.6 -14.32,134.85 -42.96,189.75 -28.64,54.9 -69.46,97.62 -122.44,128.17 -52.99,30.55 -114.81,45.83 -185.46,45.83 -25.78,0 -54.66,-5.73 -86.64,-17.19 -31.98,-11.45 -61.82,-26.73 -89.51,-45.82l-32.93 44.39 -84.5 0 0 -995.3 160.4 -15.76 0 335.11c46.78,-24.82 92.13,-37.23 136.04,-37.23 70.65,0 132.23,15.04 184.74,45.11 52.51,30.07 92.85,72.8 121.02,128.17 28.16,55.38 42.24,120.3 42.24,194.77zm-166.12 0c0,-68.74 -16.23,-124.36 -48.69,-166.84 -32.46,-42.49 -77.81,-63.73 -136.05,-63.73 -24.82,0 -47.97,3.82 -69.46,11.46 -21.48,7.63 -42.72,19.09 -63.72,34.37l0 366.61c39.14,28.64 83.53,42.96 133.18,42.96 57.28,0 102.39,-21 135.33,-63.01 32.94,-42.01 49.41,-95.95 49.41,-161.82z"/>
    <path id="1" class="fil1" d="M10072.98 11217.3c-72.56,0 -135.57,-15.28 -189.04,-45.83 -53.46,-30.55 -94.75,-73.27 -123.87,-128.17 -29.12,-54.9 -43.68,-119.1 -43.68,-192.62 0,-72.56 14.56,-136.29 43.68,-191.18 29.12,-54.9 70.89,-97.62 125.31,-128.17 54.41,-30.56 117.9,-45.83 190.46,-45.83 72.56,0 135.81,15.04 189.76,45.11 53.94,30.07 95.47,72.8 124.59,128.17 29.12,55.38 43.68,119.34 43.68,191.9 0,72.56 -14.8,136.53 -44.4,191.9 -29.6,55.38 -71.6,98.34 -126.02,128.89 -54.42,30.55 -117.91,45.83 -190.47,45.83zm194.76 -365.19c0,-67.78 -17.42,-122.92 -52.27,-165.4 -34.85,-42.49 -81.39,-63.73 -139.63,-63.73 -57.28,0 -103.82,21.48 -139.63,64.44 -35.8,42.97 -54.18,97.39 -55.13,163.26 0,67.79 17.42,122.68 52.27,164.69 34.85,42.01 81.39,63.01 139.63,63.01 58.24,0 105.26,-21.48 141.06,-64.44 35.8,-42.96 53.7,-96.9 53.7,-161.83z"/>
    <polygon id="2" class="fil1" points="10814.8,10969.55 10665.86,11198.68 10486.85,11198.68 10721.71,10844.95 10512.63,10531.33 10658.7,10479.77 10827.69,10743.28 10982.35,10504.12 11158.5,10504.12 10920.77,10869.3 11137.02,11198.68 10959.44,11198.68 "/>
    <path id="3" class="fil1" d="M11187.14 11227.32c34.37,-12.41 59.43,-23.87 75.19,-34.37 15.75,-10.5 26.25,-23.63 31.5,-39.38 5.25,-15.75 7.88,-38.91 7.88,-69.46l0 -859.25 161.82 0 0 886.46c0,42.97 -6.44,78.53 -19.33,106.69 -12.89,28.17 -34.37,52.04 -64.44,71.61 -30.08,19.57 -72.8,37.95 -128.18,55.13l-64.44 -117.43z"/>
    <path id="4" class="fil1" d="M11853.07 11217.3c-34.37,0 -74.71,-5.97 -121.02,-17.9 -46.3,-11.94 -83.77,-28.41 -112.42,-49.41l48.7 -111.7c65.87,31.5 127.45,47.25 184.74,47.25 36.28,0 67.3,-6.68 93.08,-20.04 25.78,-13.37 38.67,-31.51 38.67,-54.42 0,-42.01 -45.83,-77.81 -137.48,-107.41 -152.76,-49.65 -229.14,-120.3 -229.14,-211.95 0,-63.97 23.87,-114.33 71.61,-151.09 47.73,-36.75 112.65,-55.13 194.76,-55.13 32.46,0 71.37,6.2 116.72,18.62 45.35,12.41 83.3,29.12 113.85,50.12l-50.13 108.84c-33.41,-15.28 -64.2,-26.97 -92.37,-35.09 -28.16,-8.11 -58.47,-12.17 -90.93,-12.17 -29.6,0 -54.42,7.16 -74.47,21.48 -20.05,14.32 -30.08,31.98 -30.08,52.99 0.96,16.23 12.42,31.03 34.37,44.39 21.96,13.37 52.51,26.74 91.66,40.1 157.53,56.33 236.29,132.71 236.29,229.14 0,67.78 -24.58,120.29 -73.75,157.53 -49.17,37.23 -120.06,55.85 -212.66,55.85z"/>
   </g>
   <g style="clip-path:url(#id1)">
    <image x="22771.64" y="-2079.12" width="10013.76" height="10013.76" xlink:href="logo_Images\logo_ImgID1.png"/>
   </g>
   <g style="clip-path:url(#id2)">
    <g>
     <path class="fil2" d="M7402.03 9789.27c30.03,44.85 336.74,217.31 387.89,248.19 48.3,29.16 380.01,239.68 402.58,239.68 46.01,0 95.56,-50.86 140.13,-88.37 22.25,-18.73 42.08,-36.92 63.62,-53.71l287.02 -231.73c59.5,-48.13 -12.86,-76.42 -68.88,-109.83 -35.94,-21.44 -64.4,-39.76 -99.59,-60.97l-298.76 -182.94c-42.29,-25.46 -281.7,-180.26 -307.62,-180.26 -20.89,0 -26.46,6.48 -38.77,16.8l-443.15 365.86c-17.88,13.83 -18.42,11.31 -24.47,37.28z"/>
     <path class="fil2" d="M6006.35 9863.38c0,34.48 95.04,94.97 119.24,115.43 21.83,18.45 40.16,30.73 61.44,49.72 21.9,19.54 42.85,33.04 64.75,52.58l185.98 153.68c73.29,59.79 75.08,56.56 181.18,-12.02l498.67 -304.15c32.91,-19.7 67.01,-41.6 99.43,-61.14 29.44,-17.73 81.26,-42.41 98.53,-68.21 -8.69,-32.53 -153.32,-135.08 -183.68,-162.15 -21.75,-19.4 -41.88,-35.04 -64.21,-53.13 -35.78,-28.96 -232.31,-204.66 -258.51,-204.66 -30.4,0 -253.28,142.51 -305.11,176.59l-401.58 246.85c-25.33,15.15 -96.13,52.86 -96.13,70.61z"/>
     <path class="fil2" d="M7457.61 10832.94c0,16.64 32.78,43.52 45.05,53.76l113.66 96.3c10.89,9.21 14.81,15.03 25.65,23.77l82.74 71.64c12.74,11.84 15.02,11.41 27.5,21.91 11.74,9.87 16.61,17.35 28.35,27.22 168.13,141.38 78.71,109.59 420.23,-76.33l385.72 -225.67c57.04,-34.21 66.67,-26.98 87.69,-66.7l-63.61 -59.91c-24.85,-21.05 -47.4,-36.77 -70.71,-58.98l-243.94 -206.87c-15.15,-14.43 -22.19,-18.08 -36.85,-31.08 -30.5,-27.05 -40.69,-42 -83.16,-18.1 -215.88,121.48 -464.48,285.73 -685.69,413.74 -13.73,7.95 -32.63,16.7 -32.63,35.3z"/>
     <path class="fil2" d="M6043.4 10765.01c16.86,25.17 41.25,37.8 70.06,53.46 130.35,70.91 277.41,163.05 405.77,236.49 28.42,16.25 52.69,31.58 82.09,47.59 31.03,16.89 51.19,30.57 82.22,47.46 28.65,15.6 49.13,29.05 78.13,45.39 34.49,19.43 47.44,40.24 83.19,6.79l381.82 -328.45c66.25,-50.6 -4.05,-77.22 -54.31,-107.56 -76.1,-45.94 -639.13,-390.23 -659.62,-390.23 -31.1,0 -51.94,19.52 -69.54,35.44l-348.46 293.8c-22.58,18.08 -43.25,29.49 -51.35,59.82z"/>
     <path class="fil2" d="M7383.5 10907.05l0 839.88c0,71.83 157.69,-53.69 226.5,-94.63l406.89 -247.73c119.34,-72.22 163.26,-69.86 163.26,-201.09 0,-75.88 -70.34,-14.07 -139.98,20.58 -172.07,85.62 -76.59,110.66 -442.46,-185.39 -24.79,-20.05 -178.19,-150.15 -195.68,-150.15 -14.23,0 -18.53,4.3 -18.53,18.53z"/>
     <path class="fil2" d="M6790.65 11277.58c-67.18,0 -170.38,-109.45 -247.03,-111.16 -12.74,153.14 -61.17,108.82 209.69,272.01l497.89 304.93c97.95,60.63 76.72,35.29 76.72,-181.7l0 -685.49c-59.13,31.29 -202.93,155.36 -264.74,204.6 -44.8,35.7 -84.33,68.71 -128.67,106.01 -36.31,30.54 -84.32,90.8 -143.86,90.8z"/>
    </g>
   </g>
  </g>
  <polygon class="fil3" points="-7.6,7.6 19992.4,7.6 19992.4,20007.6 -7.6,20007.6 "/>
 </g>
</svg>
